<svg width="23" height="23" viewBox="0 0 23 23" fill="none" xmlns="http://www.w3.org/2000/svg">
<path d="M22.164 22.1097H17.2934V13.8905C17.2934 12.5998 15.8444 11.5283 14.5537 11.5283C13.2629 11.5283 12.4228 12.5998 12.4228 13.8905V22.1097H7.55214V7.49783H12.4228V9.93314C13.2264 8.63025 15.2964 7.79007 16.6846 7.79007C19.7287 7.79007 22.164 10.2741 22.164 13.2817V22.1097ZM5.11682 22.1097H0.246201V7.49783H5.11682V22.1097ZM2.68151 0.191895C3.3274 0.191895 3.94683 0.448471 4.40354 0.905181C4.86025 1.36189 5.11682 1.98132 5.11682 2.62721C5.11682 3.27309 4.86025 3.89252 4.40354 4.34923C3.94683 4.80594 3.3274 5.06252 2.68151 5.06252C2.03563 5.06252 1.4162 4.80594 0.959487 4.34923C0.502777 3.89252 0.246201 3.27309 0.246201 2.62721C0.246201 1.98132 0.502777 1.36189 0.959487 0.905181C1.4162 0.448471 2.03563 0.191895 2.68151 0.191895V0.191895Z" fill="white"/>
</svg>
